<?xml version="1.0" encoding="UTF-8" standalone="no"?>
<!DOCTYPE svg PUBLIC "-//W3C//DTD SVG 1.1//EN"
 "http://www.w3.org/Graphics/SVG/1.1/DTD/svg11.dtd">
<!-- Generated by graphviz version 2.50.0 (20211204.2007)
 -->
<!-- Title: test Pages: 1 -->
<svg width="345pt" height="97pt"
 viewBox="0.00 0.00 345.00 96.50" xmlns="http://www.w3.org/2000/svg" xmlns:xlink="http://www.w3.org/1999/xlink">
<g id="graph0" class="graph" transform="scale(1 1) rotate(0) translate(4 92.5)">
<title>test</title>
<polygon fill="white" stroke="transparent" points="-4,4 -4,-92.5 341,-92.5 341,4 -4,4"/>
<!-- Node1 -->
<g id="node1" class="node">
<title>Node1</title>
<g id="a_node1"><a xlink:title="test function to test three different arrays and return * the maximum contiguous subarray sum....">
<polygon fill="#bfbfbf" stroke="black" points="0,-50 0,-69 33,-69 33,-50 0,-50"/>
<text text-anchor="middle" x="16.5" y="-57" font-family="Helvetica,sans-Serif" font-size="10.00">test</text>
</a>
</g>
</g>
<!-- Node2 -->
<g id="node2" class="node">
<title>Node2</title>
<g id="a_node2"><a target="_blank" xlink:href="http://en.cppreference.com/w/cpp/io/manip/endl#" xlink:title=" ">
<polygon fill="white" stroke="black" points="266.5,-69 266.5,-88 320.5,-88 320.5,-69 266.5,-69"/>
<text text-anchor="middle" x="293.5" y="-76" font-family="Helvetica,sans-Serif" font-size="10.00">std::endl</text>
</a>
</g>
</g>
<!-- Node1&#45;&gt;Node2 -->
<g id="edge1" class="edge">
<title>Node1&#45;&gt;Node2</title>
<path fill="none" stroke="midnightblue" d="M33.33,-67C43.31,-71.31 56.62,-76.29 69,-78.5 134.24,-90.15 211.92,-86.25 256.4,-82.37"/>
<polygon fill="midnightblue" stroke="midnightblue" points="256.79,-85.85 266.43,-81.45 256.15,-78.88 256.79,-85.85"/>
</g>
<!-- Node3 -->
<g id="node3" class="node">
<title>Node3</title>
<g id="a_node3"><a xlink:href="../../da/d6d/namespaceoperations__on__datastructures.html#a8cecc60e59054b2964b6a59bf0e1aeb6" target="_top" xlink:title="kadanes algorithm (https://www.geeksforgeeks.org/largest&#45;sum&#45;contiguous&#45;subarray/)">
<polygon fill="white" stroke="black" points="69,-0.5 69,-30.5 214,-30.5 214,-0.5 69,-0.5"/>
<text text-anchor="start" x="77" y="-18.5" font-family="Helvetica,sans-Serif" font-size="10.00">operations_on_datastructures</text>
<text text-anchor="middle" x="141.5" y="-7.5" font-family="Helvetica,sans-Serif" font-size="10.00">::Kadanes</text>
</a>
</g>
</g>
<!-- Node1&#45;&gt;Node3 -->
<g id="edge2" class="edge">
<title>Node1&#45;&gt;Node3</title>
<path fill="none" stroke="midnightblue" d="M33.25,-53.61C43.43,-49.82 56.98,-44.82 69,-40.5 74.93,-38.37 81.14,-36.16 87.33,-33.98"/>
<polygon fill="midnightblue" stroke="midnightblue" points="88.7,-37.21 96.98,-30.59 86.38,-30.6 88.7,-37.21"/>
</g>
<!-- Node5 -->
<g id="node5" class="node">
<title>Node5</title>
<g id="a_node5"><a xlink:href="../../db/d72/kadanes_8cpp.html#acc0adf494ab705dd86c8b7dc62fff981" target="_top" xlink:title="function to print the vector">
<polygon fill="white" stroke="black" points="113.5,-50 113.5,-69 169.5,-69 169.5,-50 113.5,-50"/>
<text text-anchor="middle" x="141.5" y="-57" font-family="Helvetica,sans-Serif" font-size="10.00">printVect</text>
</a>
</g>
</g>
<!-- Node1&#45;&gt;Node5 -->
<g id="edge4" class="edge">
<title>Node1&#45;&gt;Node5</title>
<path fill="none" stroke="midnightblue" d="M33.08,-59.5C50.65,-59.5 79.83,-59.5 103.35,-59.5"/>
<polygon fill="midnightblue" stroke="midnightblue" points="103.36,-63 113.36,-59.5 103.36,-56 103.36,-63"/>
</g>
<!-- Node4 -->
<g id="node4" class="node">
<title>Node4</title>
<g id="a_node4"><a target="_blank" xlink:href="http://en.cppreference.com/w/cpp/container/vector/size#" xlink:title=" ">
<polygon fill="white" stroke="black" points="250,-28 250,-47 337,-47 337,-28 250,-28"/>
<text text-anchor="middle" x="293.5" y="-35" font-family="Helvetica,sans-Serif" font-size="10.00">std::vector::size</text>
</a>
</g>
</g>
<!-- Node3&#45;&gt;Node4 -->
<g id="edge3" class="edge">
<title>Node3&#45;&gt;Node4</title>
<path fill="none" stroke="midnightblue" d="M214.42,-26.05C222.88,-27.29 231.39,-28.54 239.53,-29.73"/>
<polygon fill="midnightblue" stroke="midnightblue" points="239.19,-33.22 249.59,-31.21 240.21,-26.29 239.19,-33.22"/>
</g>
<!-- Node5&#45;&gt;Node2 -->
<g id="edge5" class="edge">
<title>Node5&#45;&gt;Node2</title>
<path fill="none" stroke="midnightblue" d="M169.66,-62.94C193.89,-66.01 229.54,-70.52 256.2,-73.9"/>
<polygon fill="midnightblue" stroke="midnightblue" points="255.93,-77.4 266.29,-75.18 256.81,-70.45 255.93,-77.4"/>
</g>
<!-- Node5&#45;&gt;Node4 -->
<g id="edge6" class="edge">
<title>Node5&#45;&gt;Node4</title>
<path fill="none" stroke="midnightblue" d="M169.66,-55.52C189.24,-52.64 216.28,-48.68 240.01,-45.2"/>
<polygon fill="midnightblue" stroke="midnightblue" points="240.55,-48.66 249.94,-43.74 239.54,-41.73 240.55,-48.66"/>
</g>
</g>
</svg>
