<?xml version="1.0" encoding="UTF-8" standalone="no"?>
<!DOCTYPE svg PUBLIC "-//W3C//DTD SVG 1.1//EN"
 "http://www.w3.org/Graphics/SVG/1.1/DTD/svg11.dtd">
<!-- Generated by graphviz version 2.50.0 (20211204.2007)
 -->
<!-- Title: test Pages: 1 -->
<svg width="283pt" height="85pt"
 viewBox="0.00 0.00 283.00 85.00" xmlns="http://www.w3.org/2000/svg" xmlns:xlink="http://www.w3.org/1999/xlink">
<g id="graph0" class="graph" transform="scale(1 1) rotate(0) translate(4 81)">
<title>test</title>
<polygon fill="white" stroke="transparent" points="-4,4 -4,-81 279,-81 279,4 -4,4"/>
<!-- Node1 -->
<g id="node1" class="node">
<title>Node1</title>
<g id="a_node1"><a xlink:title="test function to test three different arrays and return * the maximum contiguous subarray sum....">
<polygon fill="#bfbfbf" stroke="black" points="0,-38.5 0,-57.5 33,-57.5 33,-38.5 0,-38.5"/>
<text text-anchor="middle" x="16.5" y="-45.5" font-family="Helvetica,sans-Serif" font-size="10.00">test</text>
</a>
</g>
</g>
<!-- Node2 -->
<g id="node2" class="node">
<title>Node2</title>
<g id="a_node2"><a target="_blank" xlink:href="http://en.cppreference.com/w/cpp/io/manip/endl#" xlink:title=" ">
<polygon fill="white" stroke="black" points="204.5,-57.5 204.5,-76.5 258.5,-76.5 258.5,-57.5 204.5,-57.5"/>
<text text-anchor="middle" x="231.5" y="-64.5" font-family="Helvetica,sans-Serif" font-size="10.00">std::endl</text>
</a>
</g>
</g>
<!-- Node1&#45;&gt;Node2 -->
<g id="edge1" class="edge">
<title>Node1&#45;&gt;Node2</title>
<path fill="none" stroke="midnightblue" d="M33.33,-55.5C43.31,-59.81 56.62,-64.79 69,-67 111.46,-74.58 161.22,-73.05 194.16,-70.62"/>
<polygon fill="midnightblue" stroke="midnightblue" points="194.55,-74.1 204.24,-69.81 193.99,-67.13 194.55,-74.1"/>
</g>
<!-- Node3 -->
<g id="node3" class="node">
<title>Node3</title>
<g id="a_node3"><a xlink:href="../../dd/d47/namespacemath.html#af3b18f4a55f707a81de49737a18f8c67" target="_top" xlink:title="kadanes algorithm (https://www.geeksforgeeks.org/largest&#45;sum&#45;contiguous&#45;subarray/)">
<polygon fill="white" stroke="black" points="69,-0.5 69,-19.5 152,-19.5 152,-0.5 69,-0.5"/>
<text text-anchor="middle" x="110.5" y="-7.5" font-family="Helvetica,sans-Serif" font-size="10.00">math::Kadanes</text>
</a>
</g>
</g>
<!-- Node1&#45;&gt;Node3 -->
<g id="edge2" class="edge">
<title>Node1&#45;&gt;Node3</title>
<path fill="none" stroke="midnightblue" d="M33.11,-41.55C45.05,-36.62 61.94,-29.64 76.8,-23.5"/>
<polygon fill="midnightblue" stroke="midnightblue" points="78.3,-26.67 86.21,-19.62 75.63,-20.2 78.3,-26.67"/>
</g>
<!-- Node5 -->
<g id="node5" class="node">
<title>Node5</title>
<g id="a_node5"><a xlink:href="../../db/d72/kadanes_8cpp.html#a604adcc7951d310115d8b0200b96204c" target="_top" xlink:title="function to print the vector">
<polygon fill="white" stroke="black" points="82.5,-38.5 82.5,-57.5 138.5,-57.5 138.5,-38.5 82.5,-38.5"/>
<text text-anchor="middle" x="110.5" y="-45.5" font-family="Helvetica,sans-Serif" font-size="10.00">printVect</text>
</a>
</g>
</g>
<!-- Node1&#45;&gt;Node5 -->
<g id="edge4" class="edge">
<title>Node1&#45;&gt;Node5</title>
<path fill="none" stroke="midnightblue" d="M33.11,-48C43.81,-48 58.49,-48 72.12,-48"/>
<polygon fill="midnightblue" stroke="midnightblue" points="72.25,-51.5 82.25,-48 72.25,-44.5 72.25,-51.5"/>
</g>
<!-- Node4 -->
<g id="node4" class="node">
<title>Node4</title>
<g id="a_node4"><a target="_blank" xlink:href="http://en.cppreference.com/w/cpp/container/vector/size#" xlink:title=" ">
<polygon fill="white" stroke="black" points="188,-10.5 188,-29.5 275,-29.5 275,-10.5 188,-10.5"/>
<text text-anchor="middle" x="231.5" y="-17.5" font-family="Helvetica,sans-Serif" font-size="10.00">std::vector::size</text>
</a>
</g>
</g>
<!-- Node3&#45;&gt;Node4 -->
<g id="edge3" class="edge">
<title>Node3&#45;&gt;Node4</title>
<path fill="none" stroke="midnightblue" d="M152.12,-13.41C160.26,-14.1 168.92,-14.83 177.41,-15.54"/>
<polygon fill="midnightblue" stroke="midnightblue" points="177.37,-19.05 187.63,-16.4 177.95,-12.07 177.37,-19.05"/>
</g>
<!-- Node5&#45;&gt;Node2 -->
<g id="edge5" class="edge">
<title>Node5&#45;&gt;Node2</title>
<path fill="none" stroke="midnightblue" d="M138.5,-52.31C155.01,-54.95 176.34,-58.35 194.3,-61.22"/>
<polygon fill="midnightblue" stroke="midnightblue" points="193.99,-64.72 204.42,-62.84 195.1,-57.8 193.99,-64.72"/>
</g>
<!-- Node5&#45;&gt;Node4 -->
<g id="edge6" class="edge">
<title>Node5&#45;&gt;Node4</title>
<path fill="none" stroke="midnightblue" d="M138.5,-41.65C150.87,-38.74 165.94,-35.19 180.28,-31.82"/>
<polygon fill="midnightblue" stroke="midnightblue" points="181.11,-35.22 190.04,-29.52 179.51,-28.4 181.11,-35.22"/>
</g>
</g>
</svg>
