<?xml version="1.0" encoding="UTF-8" standalone="no"?>
<!DOCTYPE svg PUBLIC "-//W3C//DTD SVG 1.1//EN"
 "http://www.w3.org/Graphics/SVG/1.1/DTD/svg11.dtd">
<!-- Generated by graphviz version 2.50.0 (20211204.2007)
 -->
<!-- Title: operations_on_datastructures/kadanes.cpp Pages: 1 -->
<svg width="188pt" height="95pt"
 viewBox="0.00 0.00 187.50 95.00" xmlns="http://www.w3.org/2000/svg" xmlns:xlink="http://www.w3.org/1999/xlink">
<g id="graph0" class="graph" transform="scale(1 1) rotate(0) translate(4 91)">
<title>operations_on_datastructures/kadanes.cpp</title>
<polygon fill="white" stroke="transparent" points="-4,4 -4,-91 183.5,-91 183.5,4 -4,4"/>
<!-- Node1 -->
<g id="node1" class="node">
<title>Node1</title>
<g id="a_node1"><a xlink:title="This program portrays a c++ implementation of the kadanes algorithm, which finds the maximum subarray...">
<polygon fill="#bfbfbf" stroke="black" points="18,-56.5 18,-86.5 163,-86.5 163,-56.5 18,-56.5"/>
<text text-anchor="start" x="26" y="-74.5" font-family="Helvetica,sans-Serif" font-size="10.00">operations_on_datastructures</text>
<text text-anchor="middle" x="90.5" y="-63.5" font-family="Helvetica,sans-Serif" font-size="10.00">/kadanes.cpp</text>
</a>
</g>
</g>
<!-- Node2 -->
<g id="node2" class="node">
<title>Node2</title>
<g id="a_node2"><a xlink:title=" ">
<polygon fill="white" stroke="#bfbfbf" points="0,-0.5 0,-19.5 45,-19.5 45,-0.5 0,-0.5"/>
<text text-anchor="middle" x="22.5" y="-7.5" font-family="Helvetica,sans-Serif" font-size="10.00">climits</text>
</a>
</g>
</g>
<!-- Node1&#45;&gt;Node2 -->
<g id="edge1" class="edge">
<title>Node1&#45;&gt;Node2</title>
<path fill="none" stroke="midnightblue" d="M74.38,-56.4C64.1,-47.4 50.75,-35.72 40.17,-26.47"/>
<polygon fill="midnightblue" stroke="midnightblue" points="42.23,-23.61 32.39,-19.66 37.62,-28.88 42.23,-23.61"/>
</g>
<!-- Node3 -->
<g id="node3" class="node">
<title>Node3</title>
<g id="a_node3"><a xlink:title=" ">
<polygon fill="white" stroke="#bfbfbf" points="63.5,-0.5 63.5,-19.5 117.5,-19.5 117.5,-0.5 63.5,-0.5"/>
<text text-anchor="middle" x="90.5" y="-7.5" font-family="Helvetica,sans-Serif" font-size="10.00">iostream</text>
</a>
</g>
</g>
<!-- Node1&#45;&gt;Node3 -->
<g id="edge2" class="edge">
<title>Node1&#45;&gt;Node3</title>
<path fill="none" stroke="midnightblue" d="M90.5,-56.4C90.5,-48.47 90.5,-38.46 90.5,-29.86"/>
<polygon fill="midnightblue" stroke="midnightblue" points="94,-29.66 90.5,-19.66 87,-29.66 94,-29.66"/>
</g>
<!-- Node4 -->
<g id="node4" class="node">
<title>Node4</title>
<g id="a_node4"><a xlink:title=" ">
<polygon fill="white" stroke="#bfbfbf" points="135.5,-0.5 135.5,-19.5 179.5,-19.5 179.5,-0.5 135.5,-0.5"/>
<text text-anchor="middle" x="157.5" y="-7.5" font-family="Helvetica,sans-Serif" font-size="10.00">vector</text>
</a>
</g>
</g>
<!-- Node1&#45;&gt;Node4 -->
<g id="edge3" class="edge">
<title>Node1&#45;&gt;Node4</title>
<path fill="none" stroke="midnightblue" d="M106.38,-56.4C116.52,-47.4 129.66,-35.72 140.09,-26.47"/>
<polygon fill="midnightblue" stroke="midnightblue" points="142.6,-28.92 147.75,-19.66 137.95,-23.68 142.6,-28.92"/>
</g>
</g>
</svg>
